<svg id="Layer_1" height="512" viewBox="0 0 128 128" width="512" xmlns="http://www.w3.org/2000/svg" data-name="Layer 1"><path d="m32.934 39.238h48.1a0 0 0 0 1 0 0v64.593a7.336 7.336 0 0 1 -7.336 7.336h-33.428a7.335 7.335 0 0 1 -7.335-7.335v-64.594a0 0 0 0 1 -.001 0z" fill="#fc6928"/><path d="m40.566 111.167h32.833v7.333h-32.833z" fill="#f6c6bb"/><path d="m81.03 55.187v8.068a14.183 14.183 0 0 1 0 28.323v8.068a22.244 22.244 0 0 0 0-44.46z" fill="#f6c6bb"/><path d="m76.017 29.843a11.769 11.769 0 0 0 -7.417 1.037 14.055 14.055 0 0 0 -27.355.565 9.75 9.75 0 0 0 -6.237.424 10.636 10.636 0 0 0 -6.712 9.508 10.422 10.422 0 0 0 19.579 5.138 14.009 14.009 0 0 0 10.89 1.435 2.715 2.715 0 0 1 3.383 2.659v25.325a4.555 4.555 0 0 0 3.991 4.6 4.427 4.427 0 0 0 4.861-4.41v-20.124a2.735 2.735 0 0 1 2.812-2.7h.029a11.832 11.832 0 0 0 2.177-23.461z" fill="#f9d12f"/><g fill="#2a1624"><path d="m86.446 21.468a2.445 2.445 0 1 0 -2.446-2.445 2.448 2.448 0 0 0 2.446 2.445z"/><path d="m86.446 26.021a2.445 2.445 0 1 0 2.445 2.445 2.447 2.447 0 0 0 -2.445-2.445z"/><path d="m81.725 26.189a2.445 2.445 0 1 0 -2.445-2.445 2.447 2.447 0 0 0 2.445 2.445z"/><path d="m91.168 26.189a2.445 2.445 0 1 0 -2.445-2.445 2.447 2.447 0 0 0 2.445 2.445z"/><path d="m30.934 12.605a2.445 2.445 0 1 0 -2.445-2.445 2.447 2.447 0 0 0 2.445 2.445z"/><path d="m30.934 17.159a2.445 2.445 0 1 0 2.445 2.441 2.447 2.447 0 0 0 -2.445-2.441z"/><path d="m28.658 14.882a2.445 2.445 0 1 0 -2.445 2.445 2.448 2.448 0 0 0 2.445-2.445z"/><path d="m35.655 17.327a2.445 2.445 0 1 0 -2.445-2.445 2.448 2.448 0 0 0 2.445 2.445z"/><path d="m104.232 77.382a23.891 23.891 0 0 0 -21.452-23.853v-1.877a13.569 13.569 0 0 0 -14.96-22.374 1.75 1.75 0 0 0 1.555 3.136 10.076 10.076 0 1 1 4.44 19.106h-.015a4.583 4.583 0 0 0 -3.263 1.334 4.365 4.365 0 0 0 -1.291 3.112v20.124a2.677 2.677 0 0 1 -2.946 2.663 2.8 2.8 0 0 1 -2.4-2.853v-25.325a4.551 4.551 0 0 0 -1.792-3.6 4.335 4.335 0 0 0 -3.811-.74 12.408 12.408 0 0 1 -9.531-1.257 1.749 1.749 0 0 0 -2.425.672 8.672 8.672 0 0 1 -16.297-4.28 8.933 8.933 0 0 1 5.625-7.916 8.01 8.01 0 0 1 5.149-.346 1.75 1.75 0 0 0 2.136-1.332 12.369 12.369 0 0 1 12.039-9.728 12.151 12.151 0 0 1 7.59 2.626 1.75 1.75 0 0 0 2.165-2.75 15.621 15.621 0 0 0 -9.755-3.376 15.9 15.9 0 0 0 -15.017 10.862 11.431 11.431 0 0 0 -5.634.806 12.313 12.313 0 0 0 -7.8 11.1 12.172 12.172 0 0 0 21.94 7.452 15.914 15.914 0 0 0 10.749.834.857.857 0 0 1 .754.156 1.026 1.026 0 0 1 .408.817v25.325a6.328 6.328 0 0 0 5.575 6.338c.171.016.341.022.511.024v12.37a1.75 1.75 0 1 0 3.5 0v-13.412a6.108 6.108 0 0 0 .744-.559 6.19 6.19 0 0 0 2.022-4.571v-20.124a.88.88 0 0 1 .263-.634 1.147 1.147 0 0 1 .826-.312 13.573 13.573 0 0 0 5.439-1.144v49.924a5.592 5.592 0 0 1 -5.585 5.585h-33.419a5.592 5.592 0 0 1 -5.585-5.585v-45.141a1.75 1.75 0 1 0 -3.5 0v45.141a9.092 9.092 0 0 0 7.631 8.958v5.711a1.75 1.75 0 0 0 1.75 1.75h32.835a1.75 1.75 0 0 0 1.75-1.75v-5.711a9.092 9.092 0 0 0 7.63-8.958v-2.56a23.892 23.892 0 0 0 21.452-23.858zm-61.917 39.334v-3.834h29.334v3.834zm40.465-19.005v-4.6a15.928 15.928 0 0 0 5.876-29.261 1.75 1.75 0 0 0 -1.849 2.972 12.42 12.42 0 0 1 -4.027 22.72v-32.487a20.485 20.485 0 0 1 0 40.656z"/><path d="m47.482 94.632v-32.5a1.75 1.75 0 1 0 -3.5 0v32.5a1.75 1.75 0 1 0 3.5 0z"/><path d="m55.232 94.632a1.75 1.75 0 1 0 3.5 0v-25.917a1.75 1.75 0 1 0 -3.5 0z"/><path d="m56.982 64.549a1.75 1.75 0 0 0 1.75-1.75v-.667a1.75 1.75 0 1 0 -3.5 0v.668a1.75 1.75 0 0 0 1.75 1.749z"/></g></svg>